<svg xmlns="http://www.w3.org/2000/svg" viewBox="0 0 980 470"><rect width="980" height="470" fill="#12233f"/><text x="56" y="44" font-family="Georgia,'Times New Roman',serif" font-size="22" font-weight="bold" fill="#a9c6ea">The high current is structural — no lever relieves it</text><text x="56" y="68" font-family="Georgia,'Times New Roman',serif" font-size="13.5" fill="#9db3cf">Lower current means leaving the spherical regime; raising elongation makes it worse. The requirement holds.</text><text x="280.0" y="120" text-anchor="middle" font-family="Georgia,'Times New Roman',serif" font-size="13" font-weight="bold" fill="#a9c6ea">Lower current leaves the spherical regime</text><rect x="90" y="130" width="380" height="250" fill="#1b3050" stroke="#2c4466"/><rect x="90.0" y="130" width="245.9" height="250" fill="#d9b463" opacity="0.10"/><text x="212.9" y="146" text-anchor="middle" font-family="system-ui,Arial,sans-serif" font-size="9.5" fill="#d9b463">spherical range (A&lt;2.5)</text><text x="82" y="338.5" text-anchor="end" font-family="'IBM Plex Mono',Menlo,monospace" font-size="9.5" fill="#9db3cf">30</text><line x1="90" y1="334.5" x2="470" y2="334.5" stroke="#2c4466"/><text x="82" y="281.7" text-anchor="end" font-family="'IBM Plex Mono',Menlo,monospace" font-size="9.5" fill="#9db3cf">35</text><line x1="90" y1="277.7" x2="470" y2="277.7" stroke="#2c4466"/><text x="82" y="224.9" text-anchor="end" font-family="'IBM Plex Mono',Menlo,monospace" font-size="9.5" fill="#9db3cf">40</text><line x1="90" y1="220.9" x2="470" y2="220.9" stroke="#2c4466"/><text x="82" y="168.1" text-anchor="end" font-family="'IBM Plex Mono',Menlo,monospace" font-size="9.5" fill="#9db3cf">45</text><line x1="90" y1="164.1" x2="470" y2="164.1" stroke="#2c4466"/><polyline points="134.7,147.0 224.1,232.3 335.9,311.8 470.0,357.3" fill="none" stroke="#a9c6ea" stroke-width="2.6"/><circle cx="134.7" cy="147.0" r="4" fill="#a9c6ea"/><circle cx="224.1" cy="232.3" r="4" fill="#a9c6ea"/><circle cx="335.9" cy="311.8" r="4" fill="#a9c6ea"/><circle cx="470.0" cy="357.3" r="4" fill="#a9c6ea"/><text x="470.0" y="373.3" text-anchor="middle" font-family="system-ui,Arial,sans-serif" font-size="9" fill="#9db3cf">ITER A≈3.1</text><text x="112.4" y="396" text-anchor="middle" font-family="'IBM Plex Mono',Menlo,monospace" font-size="9.5" fill="#9db3cf">1.5</text><text x="224.1" y="396" text-anchor="middle" font-family="'IBM Plex Mono',Menlo,monospace" font-size="9.5" fill="#9db3cf">2.0</text><text x="335.9" y="396" text-anchor="middle" font-family="'IBM Plex Mono',Menlo,monospace" font-size="9.5" fill="#9db3cf">2.5</text><text x="447.6" y="396" text-anchor="middle" font-family="'IBM Plex Mono',Menlo,monospace" font-size="9.5" fill="#9db3cf">3.0</text><text x="280" y="414" text-anchor="middle" font-family="system-ui,Arial,sans-serif" font-size="11" fill="#e8eef7">aspect ratio  A</text><text x="58" y="255" transform="rotate(-90 58 255)" text-anchor="middle" font-family="system-ui,Arial,sans-serif" font-size="11" fill="#e8eef7">plasma current I_p (MA)</text><text x="760.0" y="120" text-anchor="middle" font-family="Georgia,'Times New Roman',serif" font-size="13" font-weight="bold" fill="#a9c6ea">Raising elongation only makes it worse</text><rect x="580" y="130" width="360" height="250" fill="#1b3050" stroke="#2c4466"/><text x="572" y="366.1" text-anchor="end" font-family="'IBM Plex Mono',Menlo,monospace" font-size="9.5" fill="#9db3cf">4.6</text><line x1="580" y1="362.1" x2="940" y2="362.1" stroke="#2c4466"/><text x="572" y="330.4" text-anchor="end" font-family="'IBM Plex Mono',Menlo,monospace" font-size="9.5" fill="#9db3cf">4.8</text><line x1="580" y1="326.4" x2="940" y2="326.4" stroke="#2c4466"/><text x="572" y="294.7" text-anchor="end" font-family="'IBM Plex Mono',Menlo,monospace" font-size="9.5" fill="#9db3cf">5.0</text><line x1="580" y1="290.7" x2="940" y2="290.7" stroke="#2c4466"/><text x="572" y="259.0" text-anchor="end" font-family="'IBM Plex Mono',Menlo,monospace" font-size="9.5" fill="#9db3cf">5.2</text><line x1="580" y1="255.0" x2="940" y2="255.0" stroke="#2c4466"/><text x="572" y="223.3" text-anchor="end" font-family="'IBM Plex Mono',Menlo,monospace" font-size="9.5" fill="#9db3cf">5.4</text><line x1="580" y1="219.3" x2="940" y2="219.3" stroke="#2c4466"/><text x="572" y="187.6" text-anchor="end" font-family="'IBM Plex Mono',Menlo,monospace" font-size="9.5" fill="#9db3cf">5.6</text><line x1="580" y1="183.6" x2="940" y2="183.6" stroke="#2c4466"/><text x="572" y="151.9" text-anchor="end" font-family="'IBM Plex Mono',Menlo,monospace" font-size="9.5" fill="#9db3cf">5.8</text><line x1="580" y1="147.9" x2="940" y2="147.9" stroke="#2c4466"/><polyline points="625.0,317.5 895.0,144.3" fill="none" stroke="#e0895a" stroke-width="2.6"/><circle cx="625.0" cy="317.5" r="4" fill="#e0895a"/><circle cx="895.0" cy="144.3" r="4" fill="#e0895a"/><text x="805.0" y="183.6" font-family="system-ui,Arial,sans-serif" font-size="10.5" font-weight="700" fill="#e0895a">+18% current (adverse lever)</text><text x="580.0" y="396" text-anchor="middle" font-family="'IBM Plex Mono',Menlo,monospace" font-size="9.5" fill="#9db3cf">1.9</text><text x="670.0" y="396" text-anchor="middle" font-family="'IBM Plex Mono',Menlo,monospace" font-size="9.5" fill="#9db3cf">2.1</text><text x="760.0" y="396" text-anchor="middle" font-family="'IBM Plex Mono',Menlo,monospace" font-size="9.5" fill="#9db3cf">2.3</text><text x="850.0" y="396" text-anchor="middle" font-family="'IBM Plex Mono',Menlo,monospace" font-size="9.5" fill="#9db3cf">2.5</text><text x="940.0" y="396" text-anchor="middle" font-family="'IBM Plex Mono',Menlo,monospace" font-size="9.5" fill="#9db3cf">2.7</text><text x="760" y="414" text-anchor="middle" font-family="system-ui,Arial,sans-serif" font-size="11" fill="#e8eef7">elongation  κ</text></svg>