<svg xmlns="http://www.w3.org/2000/svg" viewBox="0 0 940 560"><rect width="940" height="560" fill="#12233f"/><text x="64" y="48" font-family="Georgia,'Times New Roman',serif" font-size="22" font-weight="bold" fill="#a9c6ea">The electron channel is the larger axial stream</text><text x="64" y="72" font-family="Georgia,'Times New Roman',serif" font-size="13.5" fill="#9db3cf">Fraction of charged fusion power by channel — at the operating point the proton has thermalized onto electrons, upending the easy story.</text><rect x="90" y="110" width="800" height="358" fill="#1b3050" stroke="#2c4466"/><line x1="90" y1="468.0" x2="890" y2="468.0" stroke="#2c4466"/><text x="82" y="472.0" text-anchor="end" font-family="'IBM Plex Mono',Menlo,monospace" font-size="10" fill="#9db3cf">0.3</text><line x1="90" y1="412.9" x2="890" y2="412.9" stroke="#2c4466"/><text x="82" y="416.9" text-anchor="end" font-family="'IBM Plex Mono',Menlo,monospace" font-size="10" fill="#9db3cf">0.4</text><line x1="90" y1="357.8" x2="890" y2="357.8" stroke="#2c4466"/><text x="82" y="361.8" text-anchor="end" font-family="'IBM Plex Mono',Menlo,monospace" font-size="10" fill="#9db3cf">0.5</text><line x1="90" y1="302.8" x2="890" y2="302.8" stroke="#2c4466"/><text x="82" y="306.8" text-anchor="end" font-family="'IBM Plex Mono',Menlo,monospace" font-size="10" fill="#9db3cf">0.6</text><line x1="90" y1="247.7" x2="890" y2="247.7" stroke="#2c4466"/><text x="82" y="251.7" text-anchor="end" font-family="'IBM Plex Mono',Menlo,monospace" font-size="10" fill="#9db3cf">0.7</text><line x1="90" y1="192.6" x2="890" y2="192.6" stroke="#2c4466"/><text x="82" y="196.6" text-anchor="end" font-family="'IBM Plex Mono',Menlo,monospace" font-size="10" fill="#9db3cf">0.8</text><line x1="90" y1="137.5" x2="890" y2="137.5" stroke="#2c4466"/><text x="82" y="141.5" text-anchor="end" font-family="'IBM Plex Mono',Menlo,monospace" font-size="10" fill="#9db3cf">0.9</text><text x="90.0" y="486" text-anchor="middle" font-family="'IBM Plex Mono',Menlo,monospace" font-size="10" fill="#9db3cf">20</text><text x="267.8" y="486" text-anchor="middle" font-family="'IBM Plex Mono',Menlo,monospace" font-size="10" fill="#9db3cf">60</text><text x="445.6" y="486" text-anchor="middle" font-family="'IBM Plex Mono',Menlo,monospace" font-size="10" fill="#9db3cf">100</text><text x="623.3" y="486" text-anchor="middle" font-family="'IBM Plex Mono',Menlo,monospace" font-size="10" fill="#9db3cf">140</text><text x="801.1" y="486" text-anchor="middle" font-family="'IBM Plex Mono',Menlo,monospace" font-size="10" fill="#9db3cf">180</text><text x="890.0" y="486" text-anchor="middle" font-family="'IBM Plex Mono',Menlo,monospace" font-size="10" fill="#9db3cf">200</text><polyline points="90.0,137.5 107.8,141.0 125.6,144.4 143.3,147.8 161.1,151.2 178.9,154.7 196.7,158.1 214.4,161.5 232.2,165.0 250.0,168.4 267.8,171.8 285.6,175.2 303.3,178.7 321.1,182.1 338.9,185.5 356.7,188.9 374.4,192.4 392.2,195.8 410.0,199.2 427.8,202.7 445.6,206.1 463.3,209.5 481.1,212.9 498.9,216.4 516.7,219.8 534.4,223.2 552.2,226.6 570.0,230.1 587.8,233.5 605.6,236.9 623.3,240.3 641.1,243.8 658.9,247.2 676.7,250.6 694.4,254.1 712.2,257.5 730.0,260.9 747.8,264.3 765.6,267.8 783.3,271.2 801.1,274.6 818.9,278.0 836.7,281.5 854.4,284.9 872.2,288.3 890.0,291.8" fill="none" stroke="#6d82a0" stroke-width="2.2" stroke-dasharray="8 6"/><polyline points="90.0,291.8 107.8,296.4 125.6,299.2 143.3,301.7 161.1,303.9 178.9,306.0 196.7,307.9 214.4,309.7 232.2,311.5 250.0,313.2 267.8,314.8 285.6,316.4 303.3,318.0 321.1,319.5 338.9,320.9 356.7,322.4 374.4,323.8 392.2,325.2 410.0,326.6 427.8,327.9 445.6,329.2 463.3,330.5 481.1,331.8 498.9,333.1 516.7,334.3 534.4,335.6 552.2,336.8 570.0,338.0 587.8,339.2 605.6,340.3 623.3,341.5 641.1,342.7 658.9,343.8 676.7,344.9 694.4,346.1 712.2,347.2 730.0,348.3 747.8,349.4 765.6,350.5 783.3,351.5 801.1,352.6 818.9,353.7 836.7,354.7 854.4,355.8 872.2,356.8 890.0,357.8" fill="none" stroke="#a9c6ea" stroke-width="2.6"/><polyline points="90.0,423.9 107.8,419.3 125.6,416.5 143.3,414.0 161.1,411.8 178.9,409.7 196.7,407.8 214.4,406.0 232.2,404.2 250.0,402.5 267.8,400.9 285.6,399.3 303.3,397.7 321.1,396.2 338.9,394.8 356.7,393.3 374.4,391.9 392.2,390.5 410.0,389.1 427.8,387.8 445.6,386.5 463.3,385.2 481.1,383.9 498.9,382.6 516.7,381.4 534.4,380.1 552.2,378.9 570.0,377.7 587.8,376.5 605.6,375.3 623.3,374.2 641.1,373.0 658.9,371.9 676.7,370.7 694.4,369.6 712.2,368.5 730.0,367.4 747.8,366.3 765.6,365.2 783.3,364.1 801.1,363.1 818.9,362.0 836.7,361.0 854.4,359.9 872.2,358.9 890.0,357.8" fill="none" stroke="#e0895a" stroke-width="2.6"/><line x1="356.7" y1="110" x2="356.7" y2="468" stroke="#9db3cf" stroke-width="1" stroke-dasharray="3 3"/><circle cx="356.7" cy="327.6" r="5" fill="#a9c6ea"/><circle cx="356.7" cy="388.1" r="5" fill="#e0895a"/><text x="366.7" y="291.8" font-family="system-ui,Arial,sans-serif" font-size="11" font-weight="700" fill="#a9c6ea">operating point · 55.5% e⁻ / 44.5% ion</text><text x="34" y="289" transform="rotate(-90 34 289)" text-anchor="middle" font-family="system-ui,Arial,sans-serif" font-size="12" fill="#e8eef7">fraction of charged fusion power</text><text x="490" y="508" text-anchor="middle" font-family="system-ui,Arial,sans-serif" font-size="12" fill="#e8eef7">ion temperature  T_i  (keV)</text><line x1="640" y1="120" x2="668" y2="120" stroke="#6d82a0" stroke-width="2.6" stroke-dasharray="8 6"/><text x="676" y="124" font-family="system-ui,Arial,sans-serif" font-size="11" fill="#e8eef7">electron, full slowing-down limit</text><line x1="640" y1="140" x2="668" y2="140" stroke="#a9c6ea" stroke-width="2.6"/><text x="676" y="144" font-family="system-ui,Arial,sans-serif" font-size="11" fill="#e8eef7">electron / thermal channel</text><line x1="640" y1="160" x2="668" y2="160" stroke="#e0895a" stroke-width="2.6"/><text x="676" y="164" font-family="system-ui,Arial,sans-serif" font-size="11" fill="#e8eef7">directed ion channel</text></svg>