<svg xmlns="http://www.w3.org/2000/svg" viewBox="0 0 980 470"><rect width="980" height="470" fill="#12233f"/><text x="56" y="50" font-family="Georgia,'Times New Roman',serif" font-size="23" font-weight="bold" fill="#a9c6ea">Why the fuel choice decides convertibility</text><text x="56" y="76" font-family="Georgia,'Times New Roman',serif" font-size="14" fill="#9db3cf">A two-body reaction makes discrete energy lines a direct converter can catch; a three-body reaction makes a smear it cannot.</text><rect x="90" y="130" width="380" height="250" fill="#1b3050" stroke="#2c4466"/><text x="280.0" y="122" text-anchor="middle" font-family="Georgia,'Times New Roman',serif" font-size="14" font-weight="bold" fill="#a9c6ea">D–³He · two-body final state</text><text x="90" y="398" text-anchor="middle" font-family="'IBM Plex Mono',Menlo,monospace" font-size="10" fill="#9db3cf">0</text><text x="138" y="398" text-anchor="middle" font-family="'IBM Plex Mono',Menlo,monospace" font-size="10" fill="#9db3cf">2</text><text x="185" y="398" text-anchor="middle" font-family="'IBM Plex Mono',Menlo,monospace" font-size="10" fill="#9db3cf">4</text><text x="232" y="398" text-anchor="middle" font-family="'IBM Plex Mono',Menlo,monospace" font-size="10" fill="#9db3cf">6</text><text x="280" y="398" text-anchor="middle" font-family="'IBM Plex Mono',Menlo,monospace" font-size="10" fill="#9db3cf">8</text><text x="328" y="398" text-anchor="middle" font-family="'IBM Plex Mono',Menlo,monospace" font-size="10" fill="#9db3cf">10</text><text x="375" y="398" text-anchor="middle" font-family="'IBM Plex Mono',Menlo,monospace" font-size="10" fill="#9db3cf">12</text><text x="422" y="398" text-anchor="middle" font-family="'IBM Plex Mono',Menlo,monospace" font-size="10" fill="#9db3cf">14</text><text x="470" y="398" text-anchor="middle" font-family="'IBM Plex Mono',Menlo,monospace" font-size="10" fill="#9db3cf">16</text><text x="280" y="418" text-anchor="middle" font-family="system-ui,Arial,sans-serif" font-size="11" fill="#e8eef7">charged-product energy (MeV)</text><rect x="169.5" y="242.5" width="12" height="137.5" fill="#d9b463"/><text x="175.5" y="234.5" text-anchor="middle" font-family="system-ui,Arial,sans-serif" font-size="11" font-weight="700" fill="#d9b463">α 3.6 MeV</text><rect x="433.1" y="150.0" width="12" height="230.0" fill="#a9c6ea"/><text x="439.1" y="142.0" text-anchor="middle" font-family="system-ui,Arial,sans-serif" font-size="11" font-weight="700" fill="#a9c6ea">proton 14.7 MeV</text><text x="280" y="280" text-anchor="middle" font-family="Georgia,'Times New Roman',serif" font-size="12.5" fill="#6bbf95">directable fraction of charged power: high</text><rect x="560" y="130" width="380" height="250" fill="#1b3050" stroke="#2c4466"/><text x="750.0" y="122" text-anchor="middle" font-family="Georgia,'Times New Roman',serif" font-size="14" font-weight="bold" fill="#a9c6ea">p–¹¹B · three-body final state</text><text x="560" y="398" text-anchor="middle" font-family="'IBM Plex Mono',Menlo,monospace" font-size="10" fill="#9db3cf">0</text><text x="644" y="398" text-anchor="middle" font-family="'IBM Plex Mono',Menlo,monospace" font-size="10" fill="#9db3cf">2</text><text x="729" y="398" text-anchor="middle" font-family="'IBM Plex Mono',Menlo,monospace" font-size="10" fill="#9db3cf">4</text><text x="813" y="398" text-anchor="middle" font-family="'IBM Plex Mono',Menlo,monospace" font-size="10" fill="#9db3cf">6</text><text x="898" y="398" text-anchor="middle" font-family="'IBM Plex Mono',Menlo,monospace" font-size="10" fill="#9db3cf">8</text><text x="750" y="418" text-anchor="middle" font-family="system-ui,Arial,sans-serif" font-size="11" fill="#e8eef7">charged-product energy (MeV)</text><polygon points="560,380 560.0,355.4 566.3,350.6 572.7,345.1 579.0,339.0 585.3,332.2 591.7,324.6 598.0,316.3 604.3,307.4 610.7,297.9 617.0,287.9 623.3,277.4 629.7,266.6 636.0,255.7 642.3,244.7 648.7,234.0 655.0,223.6 661.3,213.7 667.7,204.6 674.0,196.5 680.3,189.5 686.7,183.7 693.0,179.3 699.3,176.4 705.7,175.1 712.0,175.4 718.3,177.2 724.7,180.6 731.0,185.5 737.3,191.7 743.7,199.1 750.0,207.6 756.3,216.9 762.7,227.0 769.0,237.5 775.3,248.4 781.7,259.3 788.0,270.2 794.3,280.9 800.7,291.3 807.0,301.1 813.3,310.5 819.7,319.2 826.0,327.2 832.3,334.5 838.7,341.1 845.0,347.0 851.3,352.3 857.7,356.8 864.0,360.8 870.3,364.2 876.7,367.1 883.0,369.6 889.3,371.6 895.7,373.3 902.0,374.7 908.3,375.9 914.7,376.8 921.0,377.5 927.3,378.1 933.7,378.6 940.0,378.9 940,380" fill="#e0895a" opacity="0.28"/><polyline points="560.0,355.4 566.3,350.6 572.7,345.1 579.0,339.0 585.3,332.2 591.7,324.6 598.0,316.3 604.3,307.4 610.7,297.9 617.0,287.9 623.3,277.4 629.7,266.6 636.0,255.7 642.3,244.7 648.7,234.0 655.0,223.6 661.3,213.7 667.7,204.6 674.0,196.5 680.3,189.5 686.7,183.7 693.0,179.3 699.3,176.4 705.7,175.1 712.0,175.4 718.3,177.2 724.7,180.6 731.0,185.5 737.3,191.7 743.7,199.1 750.0,207.6 756.3,216.9 762.7,227.0 769.0,237.5 775.3,248.4 781.7,259.3 788.0,270.2 794.3,280.9 800.7,291.3 807.0,301.1 813.3,310.5 819.7,319.2 826.0,327.2 832.3,334.5 838.7,341.1 845.0,347.0 851.3,352.3 857.7,356.8 864.0,360.8 870.3,364.2 876.7,367.1 883.0,369.6 889.3,371.6 895.7,373.3 902.0,374.7 908.3,375.9 914.7,376.8 921.0,377.5 927.3,378.1 933.7,378.6 940.0,378.9" fill="none" stroke="#e0895a" stroke-width="2"/><text x="750" y="280" text-anchor="middle" font-family="Georgia,'Times New Roman',serif" font-size="12.5" fill="#e0895a">directable fraction: 0.000 — a continuum cannot be matched</text></svg>